<svg xmlns="http://www.w3.org/2000/svg" viewBox="0 0 872 548" width="872" height="548" role="img" xml:space="preserve"><title>A change is waiting, screen 1: A banner counts down to the automatic undo, and "Keep or undo" is the first item.</title><style>text{font-family:ui-monospace,SFMono-Regular,"SF Mono",Menlo,Consolas,"DejaVu Sans Mono","Liberation Mono",monospace;font-size:14px;white-space:pre}.bar{font-size:12px;fill:#83919F}</style><g fill="#D3DBE3"><rect x=".5" y=".5" width="871" height="547" rx="10" fill="#0A0F14" stroke="#222C36"/><path d="M1 30 V11 A10 10 0 0 1 11 1 H861 A10 10 0 0 1 871 11 V30 Z" fill="#121920"/><path d="M1 30.5 H871" stroke="#222C36"/><circle cx="20" cy="15" r="4" fill="#74D38A"/><text x="32" y="19" class="bar">root@web01: ~</text><rect x="772" y="46" width="50.4" height="18" fill="#C2413E"/><rect x="66.4" y="316" width="252" height="18" fill="#D3DBE3"/><path d="M20.5 54.5H32.8M268 54.5H763.6M830.8 54.5H843.5M20.5 288.5H843.5M20.5 54.5V288.5M843.5 54.5V288.5" stroke="#D3DBE3" stroke-width="1" fill="none"/><path d="M62.5 144.5H74.8M62.5 162.5H74.8M62.5 198.5H74.8M62.5 216.5H74.8M62.5 136V162.5M62.5 190V216.5" stroke="#6A7887" stroke-width="1" fill="none"/><text x="41.2" y="59.5" textLength="151.2" font-weight="700">bond-manager 3.1.0</text><text x="205" y="59.5" text-anchor="middle" font-weight="700">·</text><text x="217.6" y="59.5" textLength="42" font-weight="700">web01</text><text x="780.4" y="59.5" textLength="33.6" fill="#FFFFFF" font-weight="700">LIVE</text><text x="32.8" y="77.5" textLength="403.2" fill="#EFC263" font-weight="700">! A change is waiting for you: modify bond bond0</text><text x="49.6" y="95.5" textLength="193.2">Undone automatically in</text><text x="251.2" y="95.5" textLength="33.6" font-weight="700">1:35</text><text x="293.2" y="95.5" textLength="319.2">unless you keep it (first item below).</text><text x="37" y="131.5" text-anchor="middle" fill="#74D38A">●</text><text x="49.6" y="131.5" textLength="42" font-weight="700">bond0</text><text x="108.4" y="131.5" textLength="201.6">active-backup (failover)</text><text x="326.8" y="131.5" textLength="58.8" fill="#74D38A">healthy</text><text x="410.8" y="131.5" textLength="117.6">10.20.30.41/24</text><text x="549.4" y="131.5" text-anchor="middle" fill="#EFC263">←</text><text x="562" y="131.5" textLength="159.6" fill="#EFC263">your SSH connection</text><text x="83.2" y="149.5" textLength="50.4">ens1f0</text><text x="150.4" y="149.5" textLength="16.8" fill="#74D38A">up</text><text x="226" y="149.5" textLength="109.2">10G  (active)</text><text x="83.2" y="167.5" textLength="50.4">ens1f1</text><text x="150.4" y="167.5" textLength="16.8" fill="#74D38A">up</text><text x="226" y="167.5" textLength="25.2">10G</text><text x="37" y="185.5" text-anchor="middle" fill="#EFC263">●</text><text x="49.6" y="185.5" textLength="42" font-weight="700">bond1</text><text x="108.4" y="185.5" textLength="117.6">802.3ad (LACP)</text><text x="242.8" y="185.5" textLength="126" fill="#EFC263">needs attention</text><text x="394" y="185.5" textLength="117.6">10.20.60.41/24</text><text x="83.2" y="203.5" textLength="50.4">ens3f0</text><text x="150.4" y="203.5" textLength="16.8" fill="#74D38A">up</text><text x="226" y="203.5" textLength="25.2">10G</text><text x="83.2" y="221.5" textLength="50.4">ens3f1</text><text x="150.4" y="221.5" textLength="16.8" fill="#74D38A">up</text><text x="226" y="221.5" textLength="25.2">10G</text><text x="74.8" y="239.5" textLength="739.2" fill="#EFC263">! The switch is not answering LACP: its ports are probably not set up as an LACP bundle.</text><text x="37" y="275.5" text-anchor="middle" fill="#74D38A">✔︎</text><text x="49.6" y="275.5" textLength="361.2">Safety net: automatic undo (NetworkManager)</text><text x="16" y="311.5" textLength="193.2" font-weight="700">What do you want to do?</text><text x="28.6" y="329.5" text-anchor="middle" fill="#6CCFDC">❯</text><text x="41.2" y="329.5" textLength="8.4" fill="#6A7887">1</text><text x="74.8" y="329.5" textLength="235.2" fill="#0A0F14" font-weight="700">Keep or undo the last change</text><text x="335.2" y="329.5" textLength="75.6" fill="#6A7887">1:35 left</text><text x="41.2" y="347.5" textLength="8.4" fill="#6A7887">2</text><text x="74.8" y="347.5" textLength="117.6">Check my bonds</text><text x="217.6" y="347.5" textLength="218.4" fill="#6A7887">health, problems explained</text><text x="41.2" y="365.5" textLength="8.4" fill="#6A7887">3</text><text x="74.8" y="365.5" textLength="226.8">Move a bond to a new switch</text><text x="326.8" y="365.5" textLength="252" fill="#6A7887">one cable at a time, no outage</text><text x="41.2" y="383.5" textLength="8.4" fill="#6A7887">4</text><text x="74.8" y="383.5" textLength="134.4">Build a new bond</text><text x="41.2" y="401.5" textLength="8.4" fill="#6A7887">5</text><text x="74.8" y="401.5" textLength="109.2">Change a bond</text><text x="209.2" y="401.5" textLength="210" fill="#6A7887">ports, mode, IP, VLANs...</text><text x="41.2" y="419.5" textLength="8.4" fill="#6A7887">6</text><text x="74.8" y="419.5" textLength="226.8">Fix a bond that looks wrong</text><text x="41.2" y="437.5" textLength="8.4" fill="#6A7887">7</text><text x="74.8" y="437.5" textLength="109.2">Undo &amp; safety</text><text x="209.2" y="437.5" textLength="243.6" fill="#6A7887">waiting change, backup copies</text><text x="41.2" y="455.5" textLength="8.4" fill="#6A7887">8</text><text x="74.8" y="455.5" textLength="42">Tools</text><text x="142" y="455.5" textLength="361.2" fill="#6A7887">network ports, server check, support bundle</text><text x="41.2" y="473.5" textLength="8.4" fill="#6A7887">9</text><text x="74.8" y="473.5" textLength="193.2">Help: what is all this?</text><text x="74.8" y="491.5" textLength="168">Practice mode is OFF</text><text x="268" y="491.5" textLength="369.6" fill="#6A7887">pick to try things without changing anything</text><text x="74.8" y="509.5" textLength="33.6">Quit</text><text x="28.6" y="527.5" text-anchor="middle" fill="#6A7887">▲</text><text x="37" y="527.5" text-anchor="middle" fill="#6A7887">▼</text><text x="49.6" y="527.5" textLength="33.6" fill="#6A7887">move</text><text x="95.8" y="527.5" text-anchor="middle" fill="#6A7887">·</text><text x="108.4" y="527.5" textLength="100.8" fill="#6A7887">Enter choose</text><text x="221.8" y="527.5" text-anchor="middle" fill="#6A7887">·</text><text x="234.4" y="527.5" textLength="67.2" fill="#6A7887">1-9 jump</text><text x="314.2" y="527.5" text-anchor="middle" fill="#6A7887">·</text><text x="326.8" y="527.5" textLength="84" fill="#6A7887">p practice</text><text x="423.4" y="527.5" text-anchor="middle" fill="#6A7887">·</text><text x="436" y="527.5" textLength="75.6" fill="#6A7887">r refresh</text><text x="524.2" y="527.5" text-anchor="middle" fill="#6A7887">·</text><text x="536.8" y="527.5" textLength="50.4" fill="#6A7887">? help</text><text x="599.8" y="527.5" text-anchor="middle" fill="#6A7887">·</text><text x="612.4" y="527.5" textLength="50.4" fill="#6A7887">q quit</text></g></svg>
