<svg xmlns="http://www.w3.org/2000/svg" viewBox="0 0 872 404" width="872" height="404" role="img" xml:space="preserve"><title>On the command line, screen 4: Per-command help: plain words, usage, examples that always start with a -n preview.</title><style>text{font-family:ui-monospace,SFMono-Regular,"SF Mono",Menlo,Consolas,"DejaVu Sans Mono","Liberation Mono",monospace;font-size:14px;white-space:pre}.bar{font-size:12px;fill:#83919F}</style><g fill="#D3DBE3"><rect x=".5" y=".5" width="871" height="403" rx="10" fill="#0A0F14" stroke="#222C36"/><path d="M1 30 V11 A10 10 0 0 1 11 1 H861 A10 10 0 0 1 871 11 V30 Z" fill="#121920"/><path d="M1 30.5 H871" stroke="#222C36"/><circle cx="20" cy="15" r="4" fill="#74D38A"/><text x="32" y="19" class="bar">root@web01: ~</text><text x="16" y="59.5" textLength="126" fill="#74D38A">[root@web01 ~]#</text><text x="150.4" y="59.5" textLength="243.6">bond-manager help swap-member</text><text x="16" y="77.5" textLength="630">bond-manager swap-member - replace a bond port with another, with no outage</text><text x="16" y="113.5" textLength="621.6">The tool for moving a live server to a new switch, one cable at a time. It</text><text x="16" y="131.5" textLength="596.4">adds the new port, WAITS until the kernel really uses it, and only then</text><text x="16" y="149.5" textLength="462">removes the old one - so the bond is never short a leg.</text><text x="16" y="185.5" textLength="50.4">Usage:</text><text x="32.8" y="203.5" textLength="394.8">bond-manager swap-member BOND --old IF --new IF</text><text x="16" y="239.5" textLength="75.6">Examples:</text><text x="32.8" y="257.5" textLength="621.6">bond-manager -n swap-member bond0 --old ens1f0 --new ens2f0      (preview)</text><text x="32.8" y="275.5" textLength="512.4">sudo bond-manager swap-member bond0 --old ens1f0 --new ens2f0</text><text x="32.8" y="293.5" textLength="512.4">sudo bond-manager swap-member bond0 --old ens1f1 --new ens2f1</text><text x="16" y="329.5" textLength="109.2">Good to know:</text><text x="32.8" y="347.5" textLength="596.4">- The new port must have a link before you start ('bond-manager nics').</text><text x="32.8" y="365.5" textLength="604.8">- 802.3ad (LACP) across two separate switches will not aggregate; switch</text><text x="49.6" y="383.5" textLength="520.8">to active-backup for the move (see: bond-manager help moving).</text></g></svg>
